<svg xmlns="http://www.w3.org/2000/svg" width="40" height="35" fill="none">
  <g clip-path="url(#a)">
    <path fill="#28A745" d="M37.002 4.004c-3.74.212-11.172.986-15.76 3.8-.318.194-.497.54-.497.9v24.874c0 .79.862 1.289 1.589.922 4.72-2.38 11.548-3.03 14.924-3.207 1.153-.061 2.049-.987 2.049-2.096V6.102c0-1.21-1.047-2.17-2.305-2.098Zm-18.936 3.8c-4.588-2.814-12.021-3.587-15.76-3.8C1.047 3.933 0 4.892 0 6.102v23.096c0 1.11.896 2.035 2.049 2.096 3.377.177 10.208.827 14.93 3.209.724.366 1.583-.133 1.583-.92V8.692a1.03 1.03 0 0 0-.496-.888Z"/>
  </g>
  <defs>
    <clipPath id="a">
      <path fill="#fff" d="M0 0h39.308v35H0z"/>
    </clipPath>
  </defs>
</svg>
